<svg id="Layer_1" data-name="Layer 1" xmlns="http://www.w3.org/2000/svg" width="64" height="64" viewBox="0 0 64 64"><defs><style>.cls-1{fill:#1d1d1b;}</style></defs><title>alien-ship</title><g id="alien-ship"><path class="cls-1" d="M43.81,27.87c.19,0,.13-.53,0-.75a21.37,21.37,0,0,0-4-1.72c-.12,0-.09.88.09,1A32.42,32.42,0,0,0,43.81,27.87Zm-3.87,1.06a39.92,39.92,0,0,0,4.38,1.47c.22,0,.13-.28.13-.5A39.43,39.43,0,0,0,40,28C39.75,28,39.81,28.78,39.93,28.94ZM25.65,23.22c.31-.09.72-.69,1.38-1.19a13,13,0,0,1,2.34-.87.66.66,0,0,0-.12-.69c-.19-.19-1-.16-2.41.44A3.77,3.77,0,0,0,25,22.59C24.93,22.78,25.34,23.31,25.65,23.22ZM21.4,34.37A11.39,11.39,0,0,0,25,35.72a1.47,1.47,0,0,0,1.63-1.06c.19-.84-1-3.5-1.53-5.28a8.7,8.7,0,0,1,.06-4c0-.31-1.5-.57-1.81-.47-.94.31-2.75,4.56-2.87,6.38S20.59,33.81,21.4,34.37Zm.53-4.84c.34-1.91,1.34-3.56,1.75-3.66.16,0,.19.13.16.41a20.36,20.36,0,0,0,.72,5.47c.69,2.19.84,2.5.59,2.63a9.78,9.78,0,0,1-3.34-1A10.18,10.18,0,0,1,21.93,29.53ZM52.75,40.62c-.22.06-.56.41-.5.63a25,25,0,0,0,3.22,2.34c.25.09.5-.25.56-.44S53.13,40.51,52.75,40.62Zm2.63-1c-.22,0-.75.38-.87.41s2.59,1.88,2.94,2,.41-.25.5-.44A11,11,0,0,0,55.37,39.59Zm1.41-.78s.94.91,1.06,1,.16-.12.28-.28-.31-.94-.72-1.09S56.9,38.69,56.78,38.81ZM55,37.37a2.56,2.56,0,0,0-3.66-2,2.31,2.31,0,0,0-1,3.44C51.18,40.25,55.4,39.75,55,37.37Zm-3.69.81a1.41,1.41,0,0,1,.72-2,1.69,1.69,0,0,1,2,1.5C54.18,38.84,51.78,39.09,51.31,38.19Zm-7.53,3.59a2.78,2.78,0,0,0-1.87,1.75,2.12,2.12,0,0,0,1.81,2.16c1.44.22,3.88-1.25,3.38-2.72S44.68,41.53,43.78,41.78Zm2.06,1.91c-.34.63-1.66,1.06-2.19.56a1,1,0,0,1,.78-1.69C45.07,42.5,46.18,43.06,45.84,43.69Zm-14.59-.94a2.1,2.1,0,0,0-.19,4.16c2.66.66,4.44-1,4.28-2.53S32,42.64,31.25,42.75Zm.94,3.09c-1.41,0-2.56-1.66-.91-2.06a3.54,3.54,0,0,1,2.25.66C34.06,45,33.59,45.87,32.18,45.84ZM18.09,40.22A2.18,2.18,0,0,0,17,44.15c1.41,1.22,5.53.78,5.63-1.34S19.42,40,18.09,40.22Zm.16,3.28c-1.44-.69-.81-2.09-.25-2.16.87-.1,3.13.25,3.34,1.31S19.68,44.19,18.25,43.5Zm-7.31-9.16A2.17,2.17,0,0,0,9.09,37.5c.81,1.63,4.5,1.75,5-.66S12,34.27,10.93,34.34Zm1.91,2.38c-.37,1.06-1.59,1-2.41.47s-.08-1.64.59-1.81C11.9,35.15,13.22,35.65,12.84,36.72Zm43.41-4.87a26.11,26.11,0,0,0-9.41-3.47,10.29,10.29,0,0,0-.09-1.53,26.24,26.24,0,0,0-4.59-5.94c-3-3-7.69-3.06-7.69-3.06s0-.16-.06-1.34-2.12-1.22-2.12-1.22l.06-2.69a2.33,2.33,0,0,0,1.84-1.5c.34-1.28-.47-2.47-2.22-2.53s-2.72,1.09-2.47,2.38,1.78,1.56,1.78,1.56l0,2.84a8,8,0,0,0-1.72.38c-.75.28-.78,2-.78,2s-2.31.19-2.84.34a14.68,14.68,0,0,0-9.22,10.28,52.37,52.37,0,0,0-5.87,1.88c-3.16,1.22-6,3.13-7,4.59a9.16,9.16,0,0,0,.44,9.44C6.78,47.69,11,50,17,52.09a54.88,54.88,0,0,0,23.22,3.19c9.84-.72,13.09-3.87,15.94-5.75a11.28,11.28,0,0,0,5.06-9.12C61.47,36.25,60.25,34.53,56.25,31.84ZM30.75,11.25a1.07,1.07,0,0,1,.72-1.81c1.08-.13,1.94.41,1.75,1.31S31.15,11.53,30.75,11.25Zm.88,5.09c1.19.06,1.63.34,1.78.72s0,.44-.37.5-2.34,0-2.69.06a.37.37,0,0,1-.41-.44C30,16.87,30.43,16.28,31.62,16.34Zm-9.31,5.78A11.63,11.63,0,0,1,30,18.94c3.16-.19,6.63.44,8.72,1.81a10.83,10.83,0,0,1,2.56,2s-1.34,0-1.37.16-.09.72,0,.75a16.38,16.38,0,0,1,2.63.34c.19.19,2.25,2.06,2.59,3.94a16.11,16.11,0,0,1,0,5c-.12-.09-5.69-2.69-5.81-2.62s-.31.59-.22.69,5.94,2.53,6,2.81-.12,1.78-.12,1.78-5.78-2.87-6-2.72-.5.56-.34.69,6.31,2.75,6.28,2.94a3.42,3.42,0,0,1-1.22.94l-.56.25a55.23,55.23,0,0,0-4.87-2.75c-.22.09-.66.28-.44.59s4.38,2.41,4.16,2.63-3.87.81-9.09.72-10.09-.37-13.12-3.81a7.94,7.94,0,0,1-1.28-4.44A15.38,15.38,0,0,1,22.31,22.12ZM56.75,46.94A23.53,23.53,0,0,1,46.4,52.84a48.13,48.13,0,0,1-22.16-.12c-8.19-2.06-12.5-4-14.22-5.41s-3.28-3.19-2.81-3.16c.28,0,5.66,2.88,10.31,4.13A52,52,0,0,0,33,50.53c7.09,0,10.69-.09,15.66-1.31s7.81-2.87,8-2.75A.32.32,0,0,1,56.75,46.94Zm.19-2.69a9.69,9.69,0,0,1-1.81,1.22s-4.25-3.34-4.44-3.31-.62.53-.47.72,4.47,3,4.25,3.19a13.51,13.51,0,0,1-1.66.75S50.47,45,50.34,45s-.66.41-.5.66S52,47.09,51.9,47.19a49.5,49.5,0,0,1-14.16,2.09A71.41,71.41,0,0,1,17.62,46.9a44.42,44.42,0,0,1-11.5-5.22,4.71,4.71,0,0,1,0-6.75,23.39,23.39,0,0,1,10-5.06c.27,0,.06,4.38,2,6.38S23,39.56,27.5,40.15A36.13,36.13,0,0,0,39.56,40a20.5,20.5,0,0,0,7.25-2.91.71.71,0,0,0,.28-.56s.06-6.06.16-6.16,5.5.69,8.44,3,3.69,3.69,3.59,6.22A6.87,6.87,0,0,1,56.93,44.25Z"/></g></svg>