<svg id="Layer_1" data-name="Layer 1" xmlns="http://www.w3.org/2000/svg" width="64" height="64" viewBox="0 0 64 64"><defs><style>.cls-1{fill:#1d1d1b;}</style></defs><title>space-capsule</title><g id="space-capsule"><path class="cls-1" d="M22.25,16.81a22.32,22.32,0,0,1,.58-2.37c.5-1.29,2.17-2.08,2.25-2.21a1.19,1.19,0,0,0-.37-1c-.25-.12-.79.25-2.17,1.83a5.56,5.56,0,0,0-1.37,3.33C21.34,16.52,22.13,16.9,22.25,16.81Zm4.08,8.79c2,4.25,12.42,4.46,13.37-3.25S32.43,13,29.21,14.77C24.21,17.52,24.3,21.35,26.34,25.6ZM30,16.32c2.46-1.35,8.75-.1,8,5.79s-8.66,5.73-10.22,2.48S26.15,18.42,30,16.32Zm-.76,5c.17-.21.17-1,.5-1.87s1.67-1.21,1.92-1.42a.46.46,0,0,0-.17-.75A3.43,3.43,0,0,0,29,18.94a3.08,3.08,0,0,0-.54,2.54S29,21.48,29.21,21.27Zm1.33,1.21c-.17-.08-1,.46-.87.58s2.29,2.42,2.46,2.5.21,0,.46-.29S30.71,22.56,30.55,22.48Zm.79-1c.17.13,2.29,2.42,2.46,2.5s.21,0,.46-.29-1.87-2.71-2-2.79S31.17,21.4,31.34,21.52Zm4.21.83c.17.08.21,0,.46-.29s-1.87-2.71-2-2.79-1,.46-.87.58S35.38,22.27,35.55,22.35Zm-5.21-9.67A.92.92,0,0,0,29,11.6a1.12,1.12,0,0,0-.54,1.5C28.8,13.73,30.13,13.48,30.34,12.69Zm4.75-.87a.92.92,0,0,0-1.29-1.08,1.12,1.12,0,0,0-.54,1.5C33.55,12.85,34.88,12.6,35.09,11.81Zm4.5,1.83a.92.92,0,0,0-1.29-1.08,1.12,1.12,0,0,0-.54,1.5C38,14.69,39.38,14.44,39.59,13.65ZM43,18a.92.92,0,0,0-1.29-1.08,1.12,1.12,0,0,0-.54,1.5C41.5,19,42.84,18.77,43,18Zm-.92,5.13a1.12,1.12,0,0,0-.54,1.5c.29.63,1.63.38,1.83-.42A.92.92,0,0,0,42.13,23.1ZM38.38,28a1.12,1.12,0,0,0-.54,1.5c.29.63,1.63.38,1.83-.42A.92.92,0,0,0,38.38,28ZM26.5,29a1.12,1.12,0,0,0-.54,1.5c.29.63,1.63.38,1.83-.42A.92.92,0,0,0,26.5,29Zm-3.67-3.92a1.12,1.12,0,0,0-.54,1.5c.29.63,1.63.38,1.83-.42A.92.92,0,0,0,22.84,25.06Zm.75-4.12a.92.92,0,0,0-1.29-1.08,1.12,1.12,0,0,0-.54,1.5C22,22,23.38,21.73,23.59,20.94Zm.92-6.71a1.12,1.12,0,0,0-.54,1.5c.29.63,1.63.38,1.83-.42A.92.92,0,0,0,24.5,14.23ZM22,38.69a48.78,48.78,0,0,0,0-5c0-.25-1,0-1,.17s0,4.63,0,4.79S21.84,38.77,22,38.69ZM44.63,40a30.19,30.19,0,0,0-3-3.83c-.17-.08-.58.83-.58.83s3.13,3.88,3.13,3.88A2.42,2.42,0,0,0,44.63,40ZM43,34.52c-.25-.08-.58.58-.71.71s1.67,1.54,1.83,1.63.25-.25.29-.58S43.25,34.6,43,34.52ZM55.42,43.1c-.25-2.5-3.17-2.71-3.17-2.71s-1-5.75-1.75-9-1.71-3.46-1.71-3.46-1.17-9.29-3.46-14.17S38.8,5.06,31.84,5.65s-12,4.58-13.42,8-2.67,13.67-2.67,13.67a4.09,4.09,0,0,0-1.21.75c-.46.46-2,10.88-2,10.88s-3.08.5-3.71,1.46S8.17,51.85,9,53.52s7.17,5.17,21.75,4.88S55,55,55.34,54.44,55.67,45.6,55.42,43.1ZM48,30.27a95.14,95.14,0,0,1,2.13,10.58c-.21.17-2.79,1-2.79.58S47,30.52,47,30.35,47.84,30.1,48,30.27ZM20.59,13.77a15,15,0,0,1,12.17-6c6.42,0,9.63,3.58,11.54,8s2.42,12.54,2.42,12.54-1.92.54-2,1.38.67,12.17.54,12.21-1.33.29-1.33.29a48.17,48.17,0,0,0-3.42-4c-.25,0-.79.42-.62.63a38.89,38.89,0,0,1,2.67,3.38,10.45,10.45,0,0,1-1.12.17c-.17,0-2.08-2.46-2.25-2.46s-.75.17-.67.38,2.13,2.21,1.92,2.25-4.17.33-4.17.33S34.59,30.6,34.09,30.27s-3.62-.46-3.83.21-1.37,12.25-1.58,12.38a38.53,38.53,0,0,1-5.79-.54c-1.62-.29-3.08-.62-3.08-.62,0-.17,0-10.25-.17-12a2.64,2.64,0,0,0-1.21-2.29,1.36,1.36,0,0,0-.75-.33S19.25,15.9,20.59,13.77ZM33.8,42.85c-.25.17-2.92.29-3,0s.79-10.71,1-10.87.88-.17.92,0S34,42.69,33.8,42.85ZM16.71,28.94c.71-.08,1,.75,1.13,2.08s.08,9.88,0,9.88a15.72,15.72,0,0,1-3.67-1.12C13.63,39.48,16,29,16.71,28.94ZM53.38,51.73a5.29,5.29,0,0,1-.08,1.21s-2.71.88-3.62,1.21a12.31,12.31,0,0,1-2.08.5s-1-1.5-1.21-1.5-.87,0-.79.21,1.13,1.29.79,1.38a9.24,9.24,0,0,1-1.17.13,16.29,16.29,0,0,0-1.75-2.54c-.21,0-.79.71-.79.71s1.75,2,1.46,2.17a3.67,3.67,0,0,1-1,.13S42,53.48,41.75,53.52a3.1,3.1,0,0,0-.79.33s1,1.75.79,1.79-.87.08-.87.08-.58-.79-.71-.79-.54,0-.62.13.13.79.13.79-3.33.38-8.25.42S24,56.1,24,56.1a27.22,27.22,0,0,0-2.12-2.5c-.21,0-.87-.12-.79.13a20.35,20.35,0,0,1,1.08,1.88,10.54,10.54,0,0,1-1.42-.29,20.79,20.79,0,0,0-2.12-3.12,1.87,1.87,0,0,0-.83.08,18.35,18.35,0,0,1,1.42,2.88c-.21,0-1.37-.29-1.37-.29a9.62,9.62,0,0,0-1.08-1.54,1.92,1.92,0,0,0-.75,0s.5,1.13.33,1.13a36.24,36.24,0,0,1-4-1c-.83-.33-1.12-.42-1.25-.67s-.54-10.71.13-11c.33-.17,4.58.83,7.83,1.63a44.78,44.78,0,0,0,13,1.71A99.48,99.48,0,0,0,46.25,43.9c2.88-.42,6.67-1.37,6.79-1.21a20.17,20.17,0,0,1,.33,2.46s-.75-.87-1-.75-.75.54-.58.67a14.64,14.64,0,0,1,1.54,1.71C53.42,46.94,53.38,50.81,53.38,51.73ZM14.5,45.44A2.76,2.76,0,0,0,15,50.6c3,.72,3.88-1.5,3.54-3A2.76,2.76,0,0,0,14.5,45.44Zm.83,4.13A1.71,1.71,0,1,1,17.5,47.7C17.71,48.65,17.2,50,15.34,49.57Zm8.42-2a2.76,2.76,0,0,0,.54,5.17c3,.72,3.88-1.5,3.54-3A2.76,2.76,0,0,0,23.75,47.6Zm.83,4.13a1.71,1.71,0,1,1,2.17-1.86C27,50.81,26.45,52.17,24.59,51.73Zm11-4a2.76,2.76,0,0,0,.54,5.17c3,.72,3.88-1.5,3.54-3A2.76,2.76,0,0,0,35.63,47.73Zm.83,4.13A1.71,1.71,0,1,1,38.63,50C38.83,50.94,38.32,52.3,36.46,51.86ZM46,46.65a2.76,2.76,0,0,0,.54,5.17c3,.72,3.88-1.5,3.54-3A2.76,2.76,0,0,0,46,46.65Zm.83,4.13A1.71,1.71,0,1,1,49,48.91C49.25,49.86,48.74,51.22,46.88,50.77Zm4-5.63c-.25-.17-.79.33-.67.42s1.92,2.33,2,2.42.38-.37.5-.46A12.56,12.56,0,0,0,50.88,45.15Z"/></g></svg>