<svg id="Layer_1" data-name="Layer 1" xmlns="http://www.w3.org/2000/svg" width="64" height="64" viewBox="0 0 64 64"><defs><style>.cls-1{fill:#1d1d1b;}</style></defs><title>space-rover-1</title><g id="space-rover-1"><path class="cls-1" d="M27.16,16.57a32.6,32.6,0,0,0,0-4.28c0-.19-.78,0-.78,0-.06.16-.16,4.09-.16,4.28S27,16.63,27.16,16.57Zm.53,11.81a1.46,1.46,0,0,0,.84.06c.22-.09.13-.41,1.06-1.87A8,8,0,0,1,32,24.35c.09-.16-.19-.86-.47-.84a6.84,6.84,0,0,0-2.75,2.19A9.12,9.12,0,0,0,27.69,28.38Zm18.16.56c.16.09.47-.37.5-.59A3.7,3.7,0,0,0,45.47,27c-.19-.12-.59.41-.59.41A8,8,0,0,0,45.85,28.94ZM56.6,44.16a5.93,5.93,0,0,0-4.34-3.81,3.71,3.71,0,0,0-.12-1.41c-.22-.84-3.91-4.66-3.91-4.66s1.53-5,.63-7.09-2.34-6.41-8.09-7.69-9.47.13-9.47.13.19-8.28.13-10.12S30.54,7.1,29.26,7s-13.41-.19-15.41-.06S11.72,8.38,11.69,9s0,7.38.25,9.69a2.79,2.79,0,0,0,2.38,2.75c.47.09,5,.06,5,.06l.94,12.56s-.75,0-1.44,0a7,7,0,0,0-1.72.44,10.69,10.69,0,0,0-1.34-2.09c-.41-.28-2.94,2.38-2.94,2.38A7.7,7.7,0,0,0,11.6,36c-.16.31,1.78,2.09,1.78,2.09l-.72.84a6.81,6.81,0,0,0-4.28,2.66,10.79,10.79,0,0,0-1,9.75A8.26,8.26,0,0,0,14.85,57c3.38.34,26.19-.47,29.91-.44s7.16.16,9.88-1.62S58.07,47.63,56.6,44.16ZM40.07,21.28a11.07,11.07,0,0,1,6.25,4.38c.78,1.13,1,4.09.84,5.09a6.7,6.7,0,0,1-.37,1.5,30.68,30.68,0,0,0-2.59-3.5c-.19.09-.62.25-.5.41s2.72,3.69,2.69,3.84-.19.81-.31.78a4.08,4.08,0,0,0-.62,0,40.63,40.63,0,0,0-2.59-3.38c-.19,0-.69.16-.59.31s2.16,3.19,2.16,3.19l-.87-.09a24.26,24.26,0,0,0-1.81-2.41c-.16,0-.81.38-.75.47a16.76,16.76,0,0,1,1.34,1.94c-.09.06-2.91.06-2.91.06s-.12-3.09-3-3.53-3.53.38-4.37,1.13-.44,2.59-.44,2.59-5.78,0-5.94-.09A15.23,15.23,0,0,1,26,28a11.72,11.72,0,0,1,4.56-5.84C32.42,20.95,36.85,20.6,40.07,21.28Zm-2,12.78c-.34.09-5,0-5.22,0s-.47-.62-.41-1a2.44,2.44,0,0,1,3.31-1.78C38.13,32.19,38.41,34,38.07,34.07ZM24.54,25.85a23,23,0,0,1-.28-4.47,18.15,18.15,0,0,1,3.88,0,20.47,20.47,0,0,0-2.41,2.41C25,24.88,24.66,25.88,24.54,25.85Zm-8.34-5.91c-1.12,0-2.16,0-2.28-1.25a50,50,0,0,1-.12-6.28,7,7,0,0,1,2.13,0A54.64,54.64,0,0,0,16,17.94c.16.06.88.22.94,0s-.12-5.66.06-5.69a15.61,15.61,0,0,1,2.69,0,15.43,15.43,0,0,1,0,2.41c-.12,0-1.91.06-1.91.06s-.12.88,0,.94,1.84.06,1.84.06-.22,2.22,0,2.28.81.16.78,0a10.36,10.36,0,0,1,.06-2.22,10,10,0,0,1,2.75.06c0,.19-.22,2,0,2.06s.84.13.81,0a7.77,7.77,0,0,1,0-2.09c.16,0,1.28.19,1.28,0s.16-1.12,0-1.16L24,14.53s.25-4.91,0-5-.94-.09-.94.09S23,14.6,23,14.6l-2.44,0V9.38s-.91-.12-.91.06a11,11,0,0,1,0,1.78c-.09.06-2.81.13-2.81.13a4.79,4.79,0,0,0-.06-1.16c-.09,0-1.06-.09-1.06.06s.06,1.06,0,1.09-1.91.06-1.91.06V9.25s-.28-.84.59-.87,6.59.22,10.13.22,4.66,0,4.84.22a97.8,97.8,0,0,1-.09,10.5c-.19.09-6,.06-6.19.22s.88,14.28.63,14.38a5,5,0,0,1-1.78.06c-.06-.12-.75-14-1.09-14.13A43,43,0,0,0,16.19,19.94Zm2.59,15.88c.4-.16,13.66-.12,19.72-.16a64.75,64.75,0,0,1,8.66.25c.31.09,2.66,3.13,2.38,3.16A18,18,0,0,1,46.88,39a22.67,22.67,0,0,0-1.19-2.09c-.12,0-1.06-.12-1,0s1.41,2.16,1.19,2.16a6.65,6.65,0,0,1-1.34,0,17,17,0,0,0-1.37-2.28c-.19,0-1,0-.94.25s1.38,2.06,1.16,2.09-1.44,0-1.44,0A14,14,0,0,0,40.85,37c-.16,0-1,0-1,.13s1.28,2,1.13,2.06-1.12,0-1.12,0a10.19,10.19,0,0,0-1-2c-.22-.06-.91,0-.94.19s.84,1.88.69,1.94-6.81-.06-10.62-.06S17,39,16.22,39s-.72-.09-.62-.25A36.39,36.39,0,0,1,18.79,35.82Zm-3.37-1.91c.28.16,1,1,.94,1.19s-1,1.22-1.12,1.13a12.66,12.66,0,0,1-1-1.34C14.38,34.78,15.13,33.75,15.41,33.91Zm-2.69,2.28c0-.12.66-.62.75-.56.28.19,1.19,1.28,1.09,1.44s-.31.53-.47.44A7.93,7.93,0,0,1,12.72,36.19ZM52.16,54.25c-3,1.34-18.34,1-25.91,1.16s-13,1-15.44-1.53a9.92,9.92,0,0,1-2.38-8.5c.5-2.09,1.94-4.28,3.88-4.87.41-.12,16.91,0,21.81-.06s14.72-.06,17.22.69,4,3.25,4.09,6.31S55.13,52.91,52.16,54.25ZM48,41.91c-2.75-.28-31.58-.41-33.62.22-3,.94-4.56,4.59-3.41,8.16s3.72,3.81,10.22,3.94,26.31-.19,29-.84,3.53-3.16,3.25-6.28A5.71,5.71,0,0,0,48,41.91ZM22.16,49.47c-.37,3.69-5.5,4.91-8.06,3.09s-3.91-8.81,2.81-9.31C19.78,43,22.54,45.78,22.16,49.47Zm14.94-.41C36.72,52.75,31.6,54,29,52.16s-3.91-8.81,2.81-9.31C34.72,42.63,37.47,45.38,37.1,49.07Zm14.5-.12c-.37,3.69-5.5,4.91-8.06,3.09s-3.91-8.81,2.81-9.31C49.22,42.51,52,45.25,51.6,48.94ZM16.35,46.75c-1,.34-1.69,2.22-.22,2.91a1.78,1.78,0,0,0,2.66-1.78C18.51,46.53,17.47,46.37,16.35,46.75Zm14.28.2c-.62.86-.1,2.79,1.5,2.5a1.78,1.78,0,0,0,1.14-3C32.27,45.54,31.33,46,30.63,47Zm15-.4a1.78,1.78,0,0,0,1.42,2.87c1.37-.1,1.67-1.1,1.44-2.27S46.53,45.19,45.65,46.55Z"/></g></svg>