<svg id="Layer_1" data-name="Layer 1" xmlns="http://www.w3.org/2000/svg" width="64" height="64" viewBox="0 0 64 64"><defs><style>.cls-1{fill:#1d1d1b;}</style></defs><title>space-rocket</title><g id="space-rocket"><path class="cls-1" d="M50.73,40.75c.21.08.25-.67.17-1s-1-.87-1.29-1c0,0-.54.58-.46.83A5.93,5.93,0,0,0,50.73,40.75Zm.33,3.13c.17,0,.17-.67.13-1s-2.58-2.35-2.58-2c0,0-.37.46-.37.83S50.9,43.83,51.07,43.87Zm0,1.29a14.87,14.87,0,0,0-3.21-2.46c-.12,0-.54.58-.42.83a16.65,16.65,0,0,0,3.42,2.38C51.19,45.91,51,45.45,51,45.16Zm-11.08-5c-.17-.08-.83.09-.79.33a18.22,18.22,0,0,0,2.29,3.13c.29.17.54-.29.58-.62A13.11,13.11,0,0,0,39.94,40.12ZM37.57,41.2s-.67.33-.75.67,2.42,2.67,2.54,2.79.67-.29.83-.54S37.77,41.29,37.57,41.2Zm-2.37,1.38c-.21,0-.62.5-.67.75A18.49,18.49,0,0,0,37.73,46c.25.08.63-.37.67-.58A19.69,19.69,0,0,0,35.19,42.58Zm-1.87,1.67s-.62.67-.62.92a12.68,12.68,0,0,0,3.25,2c.46.08.38-.29.46-.58S33.53,44,33.32,44.25Zm-9.58-27.5A22.34,22.34,0,0,1,25,13.37c0-.21-.83,0-1,.08a6.4,6.4,0,0,0-1.12,2.67A20.77,20.77,0,0,0,22.27,19a2.73,2.73,0,0,0,1.08-.25C23.61,18.54,23.48,18.12,23.73,16.75ZM31.44,6c-.12-.37,0-.79-.54-.75s-3.32,3.18-3,3.29a2.14,2.14,0,0,0,1,.25c.29-.08.25-.25.79-.92S31.57,6.33,31.44,6Zm6.75,13.33c-3.92-3.33-10.38-2.2-13.67,1a10.73,10.73,0,0,0-3.17,10,10.86,10.86,0,0,0,8.83,7.92c5.67,1.13,10.71-1.58,11.92-6.5S42.11,22.62,38.19,19.29Zm2.89,12C40,35.7,35.45,38.14,30.36,37.13A9.77,9.77,0,0,1,22.41,30a9.65,9.65,0,0,1,2.85-9c3-2.85,8.77-3.86,12.3-.86A10.33,10.33,0,0,1,41.08,31.28Zm-5.6-8.34c-2.24-1.91-5.95-1.26-7.83.55a6.15,6.15,0,0,0-1.82,5.73,6.23,6.23,0,0,0,5.06,4.54c3.25.64,6.14-.91,6.83-3.73A6.58,6.58,0,0,0,35.48,22.94ZM36,29.38c-.49,2-2.51,3.07-4.79,2.61a4.37,4.37,0,0,1-3.55-3.18,4.34,4.34,0,0,1,6.77-4.41A4.61,4.61,0,0,1,36,29.38ZM33.19,20.5a1.29,1.29,0,0,0-1.6-1.67A1.33,1.33,0,0,0,30.9,21C31.27,21.41,32.86,21.45,33.19,20.5Zm-1.41-1a.55.55,0,0,1,.69.71c-.14.41-.82.39-1,.2A.57.57,0,0,1,31.78,19.51Zm5,1.41A1.33,1.33,0,0,0,36.13,23c.38.46,2,.5,2.29-.46A1.29,1.29,0,0,0,36.82,20.91Zm.89,1.39c-.14.41-.82.39-1,.2a.57.57,0,0,1,.29-.91A.55.55,0,0,1,37.7,22.3Zm3.39,5.53a1.29,1.29,0,0,0-1.6-1.67,1.33,1.33,0,0,0-.69,2.13C39.17,28.75,40.75,28.79,41.09,27.83Zm-1.41-1a.55.55,0,0,1,.69.71c-.14.41-.82.39-1,.2A.57.57,0,0,1,39.68,26.84Zm-2.26,7c.38.46,2,.5,2.29-.46a1.29,1.29,0,0,0-1.6-1.67A1.33,1.33,0,0,0,37.42,33.83ZM39,33.09c-.14.41-.82.39-1,.2a.57.57,0,0,1,.29-.91A.55.55,0,0,1,39,33.09ZM33.4,34.43a1.33,1.33,0,0,0-.69,2.13c.38.46,2,.5,2.29-.46A1.29,1.29,0,0,0,33.4,34.43Zm.89,1.39c-.14.41-.82.39-1,.2a.57.57,0,0,1,.29-.91A.55.55,0,0,1,34.28,35.82Zm-6.05-2.25a1.33,1.33,0,0,0-.69,2.13c.38.46,2,.5,2.29-.46A1.29,1.29,0,0,0,28.23,33.58ZM29.12,35c-.14.41-.82.39-1,.2a.57.57,0,0,1,.29-.91A.55.55,0,0,1,29.12,35Zm-4.49-4.7a1.33,1.33,0,0,0-.69,2.13c.38.46,2,.5,2.29-.46A1.29,1.29,0,0,0,24.63,30.27Zm.89,1.39c-.14.41-.82.39-1,.2a.57.57,0,0,1,.29-.91A.55.55,0,0,1,25.51,31.66Zm-.24-4.29a1.29,1.29,0,0,0-1.6-1.67A1.33,1.33,0,0,0,23,27.83C23.36,28.29,24.94,28.33,25.27,27.37Zm-1.41-1a.55.55,0,0,1,.69.71c-.14.41-.82.39-1,.2A.57.57,0,0,1,23.87,26.38Zm3.93-3.82a1.29,1.29,0,0,0-1.6-1.67A1.33,1.33,0,0,0,25.5,23C25.88,23.47,27.46,23.52,27.79,22.56Zm-1.41-1a.55.55,0,0,1,.69.71c-.14.41-.82.39-1,.2A.57.57,0,0,1,26.39,21.57ZM9.24,55.26A10.66,10.66,0,0,0,9.65,54a.8.8,0,0,0-.47-.75c-.25-.06-.66.91-.66.91s-.44-.44-.69-.34,0,1,0,1a3.07,3.07,0,0,0-.94-.19c-.19.06-.16.28-.16.47s.81.63.81.63-1.06.44-1.25.53.5.75.63.81,1-.72,1-.72.13.84.13,1.06.31.13.56.16S9,56.44,9,56.44a5.85,5.85,0,0,0,1.34.41c.38,0,.28-.31.28-.75S9.24,55.26,9.24,55.26ZM9.09,22s-.16,1.44.09,1.78,1.5-.78,1.5-.78,1.38.69,1.69.5-.28-1.25-.28-1.25.88-.56.94-1-1.37-.41-1.59-.41-.62-1.75-1-1.66-.45,1.63-.69,1.63c-.41,0-1.59.19-1.62.56S9.09,22,9.09,22ZM11,11.35c.09.06-.31,1.81.22,1.84s1.34-1.25,1.5-1.34,2,.78,2.38.47-.87-1.56-.87-1.56,1.16-1,.88-1.34-1.5,0-1.69.13-1.34-1.59-1.69-1.37-.25,1.5-.28,1.72-1.54.28-1.63.66S10.9,11.29,11,11.35Zm36.22-.47c.06.13-.72,1.56-.47,1.78s1.81-.84,1.94-.91S50,13.32,50.46,13s-.37-1.66-.37-1.66,1.41-.34,1.41-.72-1.56-.75-1.56-.75-.06-1.62-.37-1.66-1.22,1.28-1.31,1.34-1.91-.5-2,0S47.15,10.76,47.21,10.88Zm7.65,12c-.62-.12-1.21,1.71-1.58,1.79s-1.71-1-1.83-.5,1.08,1.58,1.17,1.75-1.33,1.21-1.08,1.63,1.5-.33,1.75-.29.67,2,1.13,1.75.17-1.92.42-2.08,1.25,0,1.42-.58-1.25-.83-1.37-1S55.48,23,54.86,22.91Zm-.92,26c.42-.42.63-12.79.21-14S47,29.62,47,29.62s-.37-2.87-.67-5.08S44.69,18.12,41,11s-7.46-9.46-8.29-9.42a9.74,9.74,0,0,0-5.29,2.79A39.14,39.14,0,0,0,19,17.58,34.33,34.33,0,0,0,17.07,29c-2.33,1.33-7.25,4.71-7.75,5.58s.42,14.71.46,14.92,2.79.29,5.21-1.12a26.49,26.49,0,0,0,5.21-4.71s1.54,3,1.88,3.58,1.42.83,1.42.83A18,18,0,0,0,24,49.79c.17.33,1.13.38,1.13.38s.88,3,.92,3.13a6.84,6.84,0,0,0,1.54.21,4.11,4.11,0,0,0-.79,2.13c0,1.08,1.25,1.75,2.88,2.21A3.63,3.63,0,0,1,31.94,60c.08.17.46.29.88.25s.5-.87,1.88-1.79,3.13-.46,4.42-2-.62-3.5-.62-3.5a3.64,3.64,0,0,0,1.42-.12C40.19,52.66,40,50,40,50a10.36,10.36,0,0,0,2.25-.29c.33-.21.13-2.5.13-2.5a2.55,2.55,0,0,0,1-.37,8.84,8.84,0,0,0,1-2.12A7.5,7.5,0,0,0,47,47C48.9,48.16,53.52,49.29,53.94,48.87ZM32.19,3.41c2.54-.12,5.67,6.79,5.33,6.83a12,12,0,0,0-6.58-.79c-4.46.54-6.08.83-6.08.83C25,9.91,29.65,3.54,32.19,3.41ZM19.15,42c-.12,0-2.75-3-3-2.87s-.71.71-.58.92,2.67,2.75,2.5,3S17,44.2,17,44.2A29.09,29.09,0,0,0,14.77,41c-.21,0-.92.75-.75,1s2.25,2.58,2,2.92a5.44,5.44,0,0,1-.63.75,18.62,18.62,0,0,0-1.92-2.21c-.17,0-.79.54-.62.83s1.79,1.71,1.42,2-2.71,1.54-2.71,1.25S11,35.83,11.23,35.25c.18-.41,5.71-4.12,5.79-3.87A43.13,43.13,0,0,0,17.94,38C18.65,40.37,19.27,42,19.15,42ZM38.21,55.79c-.78.91-3.25,1.16-4.47,2.13A8.69,8.69,0,0,0,32.49,59a3.68,3.68,0,0,0-2.31-2c-1.87-.69-2.25-.87-2.28-1.41s.06-1.87.63-2.16c.12-.06,1.84-.12,1.84-.12a1.53,1.53,0,0,0,.53,1.66c.88.75,1.59.66,1.75,1s.09.69.38.75a.57.57,0,0,0,.63-.19c.16-.19.31-1,.81-1s1.66.31,2.06-.41a3.13,3.13,0,0,0,.22-1.78,4.6,4.6,0,0,1,.88,0C37.9,53.35,39,54.88,38.21,55.79Zm-6.84-2.56a23.5,23.5,0,0,1,4-.25c.28.13.59.91.25,1.13s-1.53.41-1.87.75-.31.5-.47.44a5,5,0,0,1-1.37-.81C31.43,54,31.24,53.32,31.37,53.22Zm7.53-1.09s-1.22-.53-6-.16-5.84.59-6,.47a10.31,10.31,0,0,1-.53-2c0-.25,3.13.13,6.81,0s5.72-.37,5.78-.25A18.81,18.81,0,0,1,38.9,52.13Zm5.71-13.8s-1.29-1.79-1.54-1.71-.67.38-.46.63a18,18,0,0,1,1.79,2.42,6.76,6.76,0,0,1-.46,1.25,28,28,0,0,0-2-2.62c-.17,0-.79.13-.67.46s2.42,3.17,2.42,3.58a6.65,6.65,0,0,1-1.33,2.58c-.37.21-3.12.71-3.29,1.08s-.29,1.25,0,1.33,2.46,0,2.46.29.08,1.17,0,1.21a49.68,49.68,0,0,1-8.87.71c-5.12,0-7.37,0-7.5-.21s-.42-1.25-.25-1.21,2.25.33,3.33.38,1.42,0,1.5-.12A6.45,6.45,0,0,0,29.48,47s-4.83-.33-5.58-.75c0,0-3.46-6.12-4.25-10.46S18.57,26,20,21.33s3.21-8.25,3.54-8.5a15.69,15.69,0,0,1,8.87-2.17c5,.25,6.29,1.33,6.63,1.54a43.61,43.61,0,0,1,5.46,13.88A40.1,40.1,0,0,1,44.61,38.33ZM45.44,43a37.44,37.44,0,0,0,1.25-3.62,25.42,25.42,0,0,0,.58-7.54c.38.21,4.83,4,5,4.13s0,10.75,0,10.75a9.57,9.57,0,0,1-3.75-1A17.48,17.48,0,0,1,45.44,43Zm3.74,9.78s.13-1.16.16-1.34-.16-.22-.47-.22S47.4,52.85,47.3,53s-1.57-.11-1.69,0a1,1,0,0,0-.06.81c.13.22.84.34.94.47s-.81,1.81-.81,2.09,1.25,0,1.5-.12.5-.84.5-.84.72,1,1.06,1,.59-.19.59-.44-.59-1-.47-1.12a4.53,4.53,0,0,0,.38-.59,7.92,7.92,0,0,1,1.16-.34c.38-.12.22-.53.09-.75S49.18,52.82,49.18,52.82ZM17.3,52.1c-.16,0-.41-2-.78-2s-1,1.66-1.06,1.91a11.58,11.58,0,0,0-2.16.19c-.25.16,0,.41.13.59s1.56.31,1.63.41a19.65,19.65,0,0,1-.87,1.91c-.06.19.31.31.66.38S16,54.26,16,54.26s.34,1,.44,1.28.63.16.84,0,0-1.87,0-2.09,1.34-.16,1.34-.16.28-.44.16-.75S17.46,52.13,17.3,52.1Zm40-44.34c-.06-.16.38-2.25,0-2.44s-1.59,1.41-1.72,1.53-2.31-.71-2.44-.47c-.25.47,1.59,1.19,1.63,1.53s-1,1.59-.62,2,1.66-.56,1.88-.47,1.13,1.22,1.41,1.06-.12-1.5-.09-1.59,1.09-.19,1.09-.47S57.34,7.91,57.27,7.76Zm-.94,43.09c-2.66.41-4.41,2.31-3.87,4.78a3.21,3.21,0,0,0,3.06,2.69c.41,0,.63-.37.53-.87s-1.25-1-.78-2.91a2.81,2.81,0,0,1,2.56-2.06c.31-.12.34-.34-.09-.94S57.11,50.73,56.34,50.85ZM56.15,52a4.25,4.25,0,0,0-2,2.38c-.31,1.44.56,2.38.34,2.56s-1.47-.78-1.22-2.47a3.91,3.91,0,0,1,2.63-2.91C56.17,51.51,56.43,51.79,56.15,52Z"/></g></svg>